<svg width="30" height="30" viewBox="0 0 30 30" fill="none" xmlns="http://www.w3.org/2000/svg">
<g clip-path="url(#clip0_1_28)">
<path d="M21.725 13.4875L18.975 10.7375C18.625 10.3875 18.525 9.9 18.6625 9.4625C19.125 8.0625 19.375 6.5625 19.375 5C19.375 4.3125 19.9375 3.75 20.625 3.75H25C25.6875 3.75 26.25 4.3125 26.25 5C26.25 16.7375 16.7375 26.25 5 26.25C4.3125 26.25 3.75 25.6875 3.75 25V20.6375C3.75 19.95 4.3125 19.3875 5 19.3875C6.55 19.3875 8.0625 19.1375 9.4625 18.675C9.9 18.525 10.4 18.6375 10.7375 18.975L13.4875 21.725C17.025 19.9125 19.925 17.025 21.725 13.4875Z" fill="#04DDD1"/>
</g>
<defs>
<clipPath id="clip0_1_28">
<rect width="30" height="30" fill="white"/>
</clipPath>
</defs>
</svg>
