<svg width="30" height="30" fill="none" xmlns="http://www.w3.org/2000/svg"><g clip-path="url(#a)"><path d="m21.725 13.488-2.75-2.75c-.35-.35-.45-.838-.313-1.275.463-1.4.713-2.9.713-4.463 0-.688.563-1.25 1.25-1.25H25c.688 0 1.25.563 1.25 1.25 0 11.738-9.512 21.25-21.25 21.25-.688 0-1.25-.563-1.25-1.25v-4.363c0-.687.563-1.25 1.25-1.25 1.55 0 3.063-.25 4.463-.712.437-.15.937-.038 1.275.3l2.75 2.75a18.936 18.936 0 0 0 8.237-8.238Z" fill="#04DDD1"/></g><defs><clipPath id="a"><path fill="#fff" d="M0 0h30v30H0z"/></clipPath></defs></svg>