<svg width="233" height="98" fill="none" xmlns="http://www.w3.org/2000/svg"><circle cx="32" cy="7" r="7" fill="#fff"/><circle cx="7" cy="7" r="7" fill="#fff"/><circle cx="46" cy="21" r="7" fill="#fff"/><circle cx="21" cy="21" r="7" fill="#fff"/><circle cx="46" cy="21" r="7" fill="#fff"/><circle cx="21" cy="21" r="7" fill="#fff"/><circle cx="60" cy="35" r="7" fill="#fff"/><circle cx="35" cy="35" r="7" fill="#fff"/><circle cx="74" cy="49" r="7" fill="#fff"/><circle cx="49" cy="49" r="7" fill="#fff"/><circle cx="60" cy="61" r="7" fill="#fff"/><circle cx="35" cy="61" r="7" fill="#fff"/><circle cx="46" cy="73" r="7" fill="#fff"/><circle cx="21" cy="73" r="7" fill="#fff"/><circle cx="32" cy="85" r="7" fill="#fff"/><circle cx="7" cy="85" r="7" fill="#fff"/><circle cx="108" cy="10" r="7" fill="#fff"/><circle cx="83" cy="10" r="7" fill="#fff"/><circle cx="122" cy="24" r="7" fill="#fff"/><circle cx="97" cy="24" r="7" fill="#fff"/><circle cx="122" cy="24" r="7" fill="#fff"/><circle cx="97" cy="24" r="7" fill="#fff"/><circle cx="136" cy="38" r="7" fill="#fff"/><circle cx="111" cy="38" r="7" fill="#fff"/><circle cx="150" cy="52" r="7" fill="#fff"/><circle cx="125" cy="52" r="7" fill="#fff"/><circle cx="136" cy="64" r="7" fill="#fff"/><circle cx="111" cy="64" r="7" fill="#fff"/><circle cx="122" cy="76" r="7" fill="#fff"/><circle cx="97" cy="76" r="7" fill="#fff"/><circle cx="108" cy="88" r="7" fill="#fff"/><circle cx="83" cy="88" r="7" fill="#fff"/><circle cx="184" cy="13" r="7" fill="#fff"/><circle cx="159" cy="13" r="7" fill="#fff"/><circle cx="198" cy="27" r="7" fill="#fff"/><circle cx="173" cy="27" r="7" fill="#fff"/><circle cx="198" cy="27" r="7" fill="#fff"/><circle cx="173" cy="27" r="7" fill="#fff"/><circle cx="212" cy="41" r="7" fill="#fff"/><circle cx="187" cy="41" r="7" fill="#fff"/><circle cx="226" cy="55" r="7" fill="#fff"/><circle cx="201" cy="55" r="7" fill="#fff"/><circle cx="212" cy="67" r="7" fill="#fff"/><circle cx="187" cy="67" r="7" fill="#fff"/><circle cx="198" cy="79" r="7" fill="#fff"/><circle cx="173" cy="79" r="7" fill="#fff"/><circle cx="184" cy="91" r="7" fill="#fff"/><circle cx="159" cy="91" r="7" fill="#fff"/></svg>