<svg width="326" height="38" fill="none" xmlns="http://www.w3.org/2000/svg"><path fill-rule="evenodd" clip-rule="evenodd" d="M15.11.148H0v15.29h15.11V.149ZM0 22.483v14.842h15.11V22.483H0Zm21.915 14.842h15.109V22.483h-15.11v14.842Zm21.914 0H326V.148H43.83v37.177ZM37.024.148h-15.11v15.29h15.11V.149Zm82.871 31.042c-.24-.07-.639-.106-1.195-.106l-4.351.211c-4.4 0-7.904-1.078-10.512-3.234a12.54 12.54 0 0 1-2.583-2.91 13.03 13.03 0 0 1-1.556-3.489 14.527 14.527 0 0 1-.51-3.867c0-1.623.299-3.173.897-4.65.603-1.482 1.494-2.715 2.671-3.7a11.188 11.188 0 0 1 4.079-2.135c1.482-.422 3.111-.633 4.886-.633l3.955.316 1.152.115c.697 0 1.166-.252 1.406-.756l1.661 6.803-.29.105a6.947 6.947 0 0 0-1.872-2.575 8.273 8.273 0 0 0-2.795-1.6 9.855 9.855 0 0 0-3.217-.536c-1.271 0-2.384.179-3.34.536-.949.358-1.804.982-2.566 1.872-.744.867-1.315 1.881-1.714 3.041a10.97 10.97 0 0 0-.589 3.551c0 1.559.252 3.053.756 4.482a11.912 11.912 0 0 0 2.215 3.824 10.4 10.4 0 0 0 3.454 2.628c1.342.627 2.813.94 4.412.94 3.574 0 6.226-1.872 7.954-5.616l.361.15-2.769 7.233Zm-46.996-5.792a12.03 12.03 0 0 0 2.075 2.584 11.614 11.614 0 0 0 4.034 2.487c1.529.55 3.134.826 4.816.826 1.688 0 3.305-.29 4.852-.87a13.012 13.012 0 0 0 4.122-2.496 11.772 11.772 0 0 0 2.839-3.84c.691-1.483 1.037-3.077 1.037-4.782 0-1.828-.32-3.516-.958-5.063A11.835 11.835 0 0 0 93 10.22a11.994 11.994 0 0 0-4.105-2.628c-1.564-.61-3.254-.914-5.07-.914-1.753 0-3.402.305-4.95.914a12.26 12.26 0 0 0-4.077 2.593 11.852 11.852 0 0 0-2.716 3.946c-.645 1.512-.967 3.155-.967 4.93 0 1.073.152 2.154.457 3.244a12.68 12.68 0 0 0 1.327 3.094Zm15.909 2.768c-1.167.838-2.552 1.257-4.158 1.257-1.892 0-3.539-.577-4.94-1.731-1.4-1.155-2.463-2.631-3.19-4.43-.72-1.805-1.08-3.639-1.08-5.502 0-1.611.278-3.117.834-4.518.563-1.406 1.412-2.54 2.55-3.401 1.142-.861 2.533-1.292 4.174-1.292 1.664 0 3.214.54 4.65 1.617 1.44 1.078 2.586 2.531 3.436 4.36.85 1.822 1.274 3.776 1.274 5.862 0 1.594-.299 3.079-.896 4.456-.598 1.377-1.483 2.484-2.654 3.322ZM68.02 7.978c-1.032-.557-2.412-.835-4.14-.835H50.67v.325c.72.094 1.248.349 1.582.765.34.41.55.893.633 1.45.082.55.123 1.274.123 2.17v14.511c0 .868-.041 1.556-.123 2.066a2.63 2.63 0 0 1-.633 1.345c-.34.386-.867.63-1.582.73v.324h8.64v-.325c-.715-.064-1.245-.305-1.591-.72a2.936 2.936 0 0 1-.633-1.46c-.082-.562-.123-1.3-.123-2.214v-6.188a63.845 63.845 0 0 0 3.92-1.222 28.72 28.72 0 0 0 4.016-1.784c1.366-.732 2.485-1.579 3.358-2.54.873-.96 1.31-2.027 1.31-3.199 0-1.582-.516-2.649-1.547-3.2Zm-2.488 3.77c0 2.479-2.856 4.626-8.569 6.443v-5.942c0-.996.053-1.71.158-2.144.106-.434.396-.76.87-.976.475-.223 1.26-.334 2.356-.334 1.681 0 2.965.214 3.85.642.89.427 1.335 1.198 1.335 2.311ZM128.07 26.11V9.62l7.268 12.788 7.884-12.788v16.743c0 .88-.041 1.58-.123 2.101a2.593 2.593 0 0 1-.633 1.354c-.334.375-.861.603-1.582.685v.325h8.64v-.325c-.727-.117-1.257-.384-1.591-.8a3.019 3.019 0 0 1-.624-1.45c-.082-.545-.123-1.26-.123-2.144V11.608c0-.85.041-1.53.123-2.04.082-.51.29-.957.624-1.344.34-.387.87-.639 1.591-.756v-.325h-8.675v.325c.457.094.685.346.685.756 0 .463-.313 1.195-.94 2.197l-4.104 6.653-4.14-7.558c-.311-.592-.466-1.046-.466-1.363 0-.357.205-.585.615-.685v-.325h-9.105v.325c1.025.14 1.67.577 1.933 1.31.27.732.405 1.757.405 3.076v14.51c0 .868-.041 1.556-.123 2.066a2.63 2.63 0 0 1-.633 1.345c-.34.386-.867.63-1.582.73v.324h7.014v-.325c-.721-.064-1.251-.305-1.591-.72a2.978 2.978 0 0 1-.624-1.46c-.082-.562-.123-1.3-.123-2.214Zm41.942-12.165-.29.106a7.579 7.579 0 0 0-2.145-2.918 9.29 9.29 0 0 0-3.208-1.767 12.116 12.116 0 0 0-3.718-.57c-.884 0-1.558.072-2.021.219a1.57 1.57 0 0 0-.993.844c-.199.421-.299 1.075-.299 1.96v2.056h3.568c.991 0 1.77-.135 2.338-.404.574-.276.861-.861.861-1.758l.326-.105 1.406 8.06-.29.113c-.299-1.025-.671-1.828-1.116-2.408-.446-.586-.958-1.005-1.538-1.257a5.91 5.91 0 0 0-1.872-.465c-.668-.059-1.609-.088-2.822-.088h-.861v9.65c0 1.102.061 1.907.184 2.417.129.51.452.897.967 1.16.522.258 1.374.387 2.558.387 4.922 0 8.522-2.317 10.802-6.952l.36.105-3.059 8.965c-.24-.31-.77-.466-1.59-.466h-16.524v-.325c.721-.117 1.251-.369 1.591-.756a2.63 2.63 0 0 0 .633-1.345c.082-.51.123-1.189.123-2.038V11.854c0-1.301-.135-2.318-.404-3.05-.27-.738-.917-1.184-1.943-1.336v-.325h15.407c.938 0 1.588-.144 1.952-.43l1.617 7.232Zm15.522 15.012h-6.232c-.732 0-1.289-.047-1.669-.14-.381-.1-.68-.343-.897-.73-.211-.392-.316-1.014-.316-1.863 0-1.957.231-3.917.694-5.88.469-1.969 1.069-3.765 1.802-5.388.732-1.629 1.497-2.985 2.294-4.07a4.96 4.96 0 0 1 1.837-1.537c.744-.37 1.5-.554 2.267-.554.938 0 1.617.114 2.039.343.422.228.68.548.774.958.093.404.14 1.028.14 1.872v14.186c0 1.183-.243 1.948-.729 2.294-.486.34-1.154.51-2.004.51Zm11.197 7.743-1.766-7.128c-.405.288-.753.431-1.046.431-.51 0-.92-.334-1.231-1.002-.304-.668-.457-1.547-.457-2.637v-14.51c0-1.301.135-2.318.404-3.05.27-.738.915-1.184 1.934-1.336v-.325h-15.838v.325c.744.094 1.116.548 1.116 1.362 0 .551-.158 1.043-.474 1.477a27.554 27.554 0 0 0-2.259 3.893 35.348 35.348 0 0 0-1.696 4.184 43.358 43.358 0 0 0-1.108 3.981 51.135 51.135 0 0 0-.694 3.824c-.1.72-.369 1.532-.809 2.434-.439.897-.949 1.345-1.529 1.345-.269 0-.559-.132-.87-.395L168.65 36.7l.325.106a10.414 10.414 0 0 1 1.864-3.138 8.097 8.097 0 0 1 2.83-2.092c1.113-.498 2.379-.747 3.797-.747h10.441c1.412 0 2.675.25 3.788.747a7.986 7.986 0 0 1 2.839 2.092c.779.897 1.403 1.943 1.872 3.138l.325-.106Zm5.995-10.59c0 .914.041 1.652.123 2.214.082.557.29 1.043.624 1.46.34.415.87.656 1.591.72v.325h-8.64v-.325c.715-.1 1.242-.343 1.582-.73a2.64 2.64 0 0 0 .642-1.353c.082-.515.123-1.201.123-2.056V11.854c0-1.319-.135-2.344-.404-3.076-.27-.733-.917-1.17-1.943-1.31v-.325h8.64v.325c-.721.076-1.251.305-1.591.685a2.578 2.578 0 0 0-.624 1.345c-.082.522-.123 1.225-.123 2.11V19.2l10.731-9.36c0-.662-.131-1.198-.395-1.608-.264-.416-.911-.671-1.942-.765v-.325h8.639v.325c-.726.094-1.257.331-1.591.712a2.655 2.655 0 0 0-.632 1.371c-.082.539-.123 1.225-.123 2.057V26.11c.023.955.073 1.696.149 2.223.082.527.29 1 .624 1.415.334.416.858.668 1.573.756v.325h-8.639v-.325c1.037-.076 1.684-.451 1.942-1.125.264-.68.395-1.684.395-3.015v-14.07l-10.731 9.36v4.456Zm18.932 4.394v.325h16.234c1.412 0 2.675.25 3.788.747a7.986 7.986 0 0 1 2.839 2.092c.779.897 1.403 1.943 1.872 3.138l.316-.106-1.758-7.128c-.117.141-.287.211-.509.211-.452 0-.87-.298-1.257-.896-.387-.598-.58-1.524-.58-2.777V11.608c0-1.266.134-2.236.404-2.91.27-.68.917-1.09 1.942-1.23v-.325h-8.674v.29c.726.076 1.259.32 1.599.73.346.41.56.893.642 1.45.088.55.132 1.286.132 2.206v14.185c0 .926-.065 1.597-.194 2.013-.123.41-.419.706-.887.887-.463.182-1.219.273-2.268.273H231.3c-1.049 0-1.808-.09-2.276-.273-.463-.181-.759-.477-.888-.887-.123-.416-.185-1.087-.185-2.013V11.82c0-.92.041-1.656.123-2.207.082-.556.296-1.04.642-1.45.352-.41.891-.653 1.617-.73v-.29h-8.675v.326c.721.1 1.248.346 1.582.738.34.387.551.838.633 1.354.082.51.123 1.192.123 2.048V26.11c0 1.306-.132 2.326-.395 3.058-.264.727-.911 1.172-1.943 1.336Zm31.448-4.394c0 .914.041 1.652.123 2.214.082.557.29 1.043.624 1.46.34.415.871.656 1.591.72v.325h-8.639v-.325c.714-.1 1.242-.343 1.582-.73.345-.392.559-.843.641-1.353.082-.515.123-1.201.123-2.056V11.854c0-1.319-.134-2.344-.404-3.076-.27-.733-.917-1.17-1.942-1.31v-.325h8.639v.325c-.72.076-1.251.305-1.591.685a2.578 2.578 0 0 0-.624 1.345c-.082.522-.123 1.225-.123 2.11V19.2l10.732-9.36c0-.662-.132-1.198-.396-1.608-.263-.416-.911-.671-1.942-.765v-.325h8.64v.325c-.727.094-1.257.331-1.591.712a2.656 2.656 0 0 0-.633 1.371c-.082.539-.123 1.225-.123 2.057V26.11c.023.955.073 1.696.149 2.223.082.527.29 1 .624 1.415.334.416.859.668 1.574.756v.325h-8.64v-.325c1.037-.076 1.684-.451 1.942-1.125.264-.68.396-1.684.396-3.015v-14.07l-10.732 9.36v4.456Zm25.314 2.214c-.082-.562-.123-1.3-.123-2.214V15.457h10.731v10.907c-.023 1.366-.161 2.38-.413 3.041-.252.657-.894 1.023-1.925 1.1v.324h15.935v-.325a2.228 2.228 0 0 1-1.397-.58c-.387-.357-.58-.811-.58-1.362 0-.621.19-1.474.571-2.558l2.092-5.722c1.394.024 2.701.276 3.92.756 1.219.475 2.273 1.096 3.164 1.864.896.767 1.588 1.6 2.074 2.496.492.896.738 1.758.738 2.584 0 1.418-.589 2.258-1.766 2.522v.325h8.174v-.325a2.941 2.941 0 0 1-.862-.369 2.14 2.14 0 0 1-.545-.554c-.14-.21-.304-.539-.492-.984a25.09 25.09 0 0 0-.299-.72l-6.152-17.71c-.217-.61-.325-1.079-.325-1.407 0-.674.348-1.105 1.046-1.292v-.325h-7.99v.325c.745.129 1.117.513 1.117 1.151 0 .422-.182 1.117-.545 2.083l-5.792 15.302c-.563 1.482-1.105 2.599-1.626 3.349-.252.363-.51.624-.774.782-.26.15-.619.272-1.078.365-.699-.091-1.213-.342-1.542-.752a2.945 2.945 0 0 1-.624-1.415c-.076-.527-.126-1.268-.149-2.223V11.608c.035-1.336.179-2.33.431-2.98.258-.65.896-1.037 1.916-1.16v-.325h-8.64v.325c.727.059 1.257.29 1.591.694.334.405.539.89.615 1.46.076.562.12 1.306.132 2.232v1.872h-10.731v-2.118c0-.885.041-1.588.123-2.11.082-.521.29-.97.624-1.345.339-.38.87-.609 1.59-.685v-.325h-8.639v.325c1.025.14 1.673.577 1.942 1.31.27.732.404 1.757.404 3.076v14.51c0 .856-.041 1.541-.123 2.057-.082.51-.296.961-.641 1.354-.34.386-.867.63-1.582.73v.324h8.639v-.325c-.72-.064-1.251-.305-1.59-.72a2.978 2.978 0 0 1-.624-1.46Zm28.705-18.483-3.278 8.64c.891 0 1.781.108 2.672.325.891.217 1.725.539 2.505.967a8.743 8.743 0 0 1 2.1 1.59l-3.999-11.522Z" fill="#ED1C24"/></svg>